<?xml version="1.0" standalone="no"?>
<!DOCTYPE svg PUBLIC "-//W3C//DTD SVG 20010904//EN"
 "http://www.w3.org/TR/2001/REC-SVG-20010904/DTD/svg10.dtd">
<svg version="1.0" xmlns="http://www.w3.org/2000/svg"
 width="210.000000pt" height="240.000000pt" viewBox="0 0 210.000000 240.000000"
 preserveAspectRatio="xMidYMid meet">

<g transform="translate(0.000000,240.000000) scale(0.100000,-0.100000)"
fill="#000000" stroke="none">
<path d="M150 2237 c-53 -17 -124 -93 -138 -149 -17 -67 -17 -1709 0 -1776 15
-59 85 -132 144 -150 59 -17 1729 -17 1788 0 59 18 129 91 144 150 17 67 17
1709 0 1776 -15 59 -85 132 -144 150 -56 16 -1741 16 -1794 -1z m1140 -326
c128 -43 220 -100 310 -191 211 -213 274 -509 171 -804 -68 -195 -237 -373
-421 -446 -58 -23 -86 -25 -96 -8 -4 6 -8 86 -8 177 -1 149 -3 170 -23 209
-14 29 -17 44 -10 47 7 1 44 8 83 15 86 14 165 57 199 108 29 44 55 139 55
202 0 59 -14 104 -46 154 -24 36 -27 50 -28 138 -1 118 -7 127 -72 110 -26 -7
-72 -27 -103 -46 -46 -27 -61 -31 -86 -24 -63 18 -218 20 -290 5 -66 -14 -72
-14 -97 4 -43 31 -131 69 -160 69 -23 0 -27 -6 -38 -51 -8 -31 -10 -74 -6
-110 6 -53 5 -62 -18 -92 -33 -43 -49 -118 -40 -192 15 -131 52 -199 132 -239
41 -21 73 -29 191 -52 22 -5 22 -6 7 -23 -9 -10 -21 -34 -27 -54 -10 -39 -27
-47 -99 -47 -57 0 -101 26 -135 80 -31 49 -78 80 -122 80 -43 0 -42 -12 6 -49
24 -19 52 -57 72 -97 44 -86 81 -108 192 -108 l77 -1 0 -100 c0 -139 -11 -147
-126 -95 -419 190 -580 714 -343 1118 44 73 168 197 241 241 145 84 255 112
433 107 115 -3 141 -7 225 -35z m-720 -1011 c0 -5 -4 -10 -10 -10 -5 0 -10 5
-10 10 0 6 5 10 10 10 6 0 10 -4 10 -10z m30 -30 c0 -5 -4 -10 -10 -10 -5 0
-10 5 -10 10 0 6 5 10 10 10 6 0 10 -4 10 -10z m31 -43 c-1 -12 -15 -9 -19 4
-3 6 1 10 8 8 6 -3 11 -8 11 -12z m47 -45 c2 -7 -3 -12 -12 -12 -9 0 -16 7
-16 16 0 17 22 14 28 -4z m52 -32 c0 -5 -7 -10 -15 -10 -8 0 -15 5 -15 10 0 6
7 10 15 10 8 0 15 -4 15 -10z m120 0 c0 -5 -7 -10 -15 -10 -8 0 -15 5 -15 10
0 6 7 10 15 10 8 0 15 -4 15 -10z m-55 -10 c-3 -5 -13 -10 -21 -10 -8 0 -14 5
-14 10 0 6 9 10 21 10 11 0 17 -4 14 -10z"/>
</g>
</svg>
