<?xml version="1.0" standalone="no"?>
<!DOCTYPE svg PUBLIC "-//W3C//DTD SVG 20010904//EN"
 "http://www.w3.org/TR/2001/REC-SVG-20010904/DTD/svg10.dtd">
<svg version="1.0" xmlns="http://www.w3.org/2000/svg"
 width="600.000000pt" height="600.000000pt" viewBox="0 0 600.000000 600.000000"
 preserveAspectRatio="xMidYMid meet">

<g transform="translate(0.000000,600.000000) scale(0.100000,-0.100000)"
fill="#000000" stroke="none">
<path d="M0 3000 l0 -3000 3000 0 3000 0 0 3000 0 3000 -3000 0 -3000 0 0
-3000z m1497 2149 c166 -55 304 -204 342 -369 16 -68 13 -199 -5 -261 -112
-380 -586 -506 -863 -228 -101 101 -151 223 -151 370 0 202 111 378 295 465
120 57 254 65 382 23z m2778 -1340 c124 -15 242 -51 349 -107 73 -37 109 -64
181 -137 108 -108 163 -200 216 -360 87 -260 101 -482 97 -1550 l-3 -770 -447
-3 -448 -2 0 792 c0 932 -5 1000 -80 1154 -75 154 -243 229 -457 204 -245 -28
-368 -150 -431 -425 -13 -60 -16 -189 -19 -898 l-4 -827 -447 2 -447 3 -3
1433 -2 1432 430 0 430 0 2 -196 3 -196 47 69 c151 221 420 371 703 392 107 8
207 5 330 -10z m-2495 -1494 l0 -1435 -445 0 -445 0 0 1435 0 1435 445 0 445
0 0 -1435z"/>
</g>
</svg>
